<mxfile host="app.diagrams.net" modified="2023-04-11T21:27:04.190Z" agent="Mozilla/5.0 (Windows NT 10.0; Win64; x64) AppleWebKit/537.36 (KHTML, like Gecko) Chrome/111.0.0.0 Safari/537.36" etag="GT4mF_enOEkkLmF6JziX" version="21.1.6" type="github">
  <diagram name="Página-1" id="7r3qvMrUDIAu8puuAzQh">
    <mxGraphModel dx="1434" dy="788" grid="1" gridSize="10" guides="1" tooltips="1" connect="1" arrows="1" fold="1" page="1" pageScale="1" pageWidth="1169" pageHeight="827" math="0" shadow="0">
      <root>
        <mxCell id="0" />
        <mxCell id="1" parent="0" />
        <mxCell id="7d7VojkJWrQPYle1wUF3-2" style="edgeStyle=orthogonalEdgeStyle;rounded=0;orthogonalLoop=1;jettySize=auto;html=1;entryX=0;entryY=0.5;entryDx=0;entryDy=0;" edge="1" parent="1" source="7d7VojkJWrQPYle1wUF3-1" target="7d7VojkJWrQPYle1wUF3-4">
          <mxGeometry relative="1" as="geometry">
            <mxPoint x="300" y="70" as="targetPoint" />
          </mxGeometry>
        </mxCell>
        <mxCell id="7d7VojkJWrQPYle1wUF3-1" value="PROGRAMA DE EMPAQUE" style="rounded=1;whiteSpace=wrap;html=1;fillColor=#d5e8d4;strokeColor=#82b366;fontStyle=1" vertex="1" parent="1">
          <mxGeometry x="80" y="40" width="120" height="60" as="geometry" />
        </mxCell>
        <mxCell id="7d7VojkJWrQPYle1wUF3-8" style="edgeStyle=orthogonalEdgeStyle;rounded=0;orthogonalLoop=1;jettySize=auto;html=1;entryX=0;entryY=0.5;entryDx=0;entryDy=0;" edge="1" parent="1" source="7d7VojkJWrQPYle1wUF3-3" target="7d7VojkJWrQPYle1wUF3-7">
          <mxGeometry relative="1" as="geometry" />
        </mxCell>
        <mxCell id="7d7VojkJWrQPYle1wUF3-3" value="CAPTURA EN SISTEMA" style="shape=parallelogram;perimeter=parallelogramPerimeter;whiteSpace=wrap;html=1;fixedSize=1;fillColor=#ffe6cc;strokeColor=#d79b00;" vertex="1" parent="1">
          <mxGeometry x="500" y="300" width="120" height="60" as="geometry" />
        </mxCell>
        <mxCell id="7d7VojkJWrQPYle1wUF3-6" style="edgeStyle=orthogonalEdgeStyle;rounded=0;orthogonalLoop=1;jettySize=auto;html=1;entryX=0;entryY=0.5;entryDx=0;entryDy=0;" edge="1" parent="1" source="7d7VojkJWrQPYle1wUF3-4" target="7d7VojkJWrQPYle1wUF3-3">
          <mxGeometry relative="1" as="geometry" />
        </mxCell>
        <mxCell id="7d7VojkJWrQPYle1wUF3-4" value="FORMULARIO DE PROGRAMA DE EMPAQUE" style="shape=document;whiteSpace=wrap;html=1;boundedLbl=1;fillColor=#fff2cc;strokeColor=#d6b656;" vertex="1" parent="1">
          <mxGeometry x="290" y="170" width="120" height="80" as="geometry" />
        </mxCell>
        <mxCell id="7d7VojkJWrQPYle1wUF3-10" style="edgeStyle=orthogonalEdgeStyle;rounded=0;orthogonalLoop=1;jettySize=auto;html=1;" edge="1" parent="1" source="7d7VojkJWrQPYle1wUF3-7" target="7d7VojkJWrQPYle1wUF3-9">
          <mxGeometry relative="1" as="geometry" />
        </mxCell>
        <mxCell id="7d7VojkJWrQPYle1wUF3-7" value="REPARTICIÓN DE MATERIALES" style="shape=process;whiteSpace=wrap;html=1;backgroundOutline=1;fillColor=#f8cecc;strokeColor=#b85450;" vertex="1" parent="1">
          <mxGeometry x="650" y="430" width="120" height="60" as="geometry" />
        </mxCell>
        <mxCell id="7d7VojkJWrQPYle1wUF3-12" style="edgeStyle=orthogonalEdgeStyle;rounded=0;orthogonalLoop=1;jettySize=auto;html=1;" edge="1" parent="1" source="7d7VojkJWrQPYle1wUF3-9" target="7d7VojkJWrQPYle1wUF3-11">
          <mxGeometry relative="1" as="geometry" />
        </mxCell>
        <mxCell id="7d7VojkJWrQPYle1wUF3-9" value="EMPAQUE EN CAMPO" style="shape=process;whiteSpace=wrap;html=1;backgroundOutline=1;fillColor=#f8cecc;strokeColor=#b85450;" vertex="1" parent="1">
          <mxGeometry x="810" y="550" width="120" height="60" as="geometry" />
        </mxCell>
        <mxCell id="7d7VojkJWrQPYle1wUF3-11" value="PROGRAMA DEL DÍA TERMINADO" style="rounded=1;whiteSpace=wrap;html=1;fillColor=#d5e8d4;strokeColor=#82b366;fontStyle=1" vertex="1" parent="1">
          <mxGeometry x="1000" y="670" width="120" height="60" as="geometry" />
        </mxCell>
      </root>
    </mxGraphModel>
  </diagram>
</mxfile>
